<svg width="18" height="18" viewBox="0 0 18 18" fill="none" xmlns="http://www.w3.org/2000/svg">
<path id="Vector" d="M15.8003 9.02561C17.5956 10.7372 18.3996 12.421 17.7021 13.5007C17.006 14.5776 14.9767 14.7998 12.4268 14.2717C11.6634 16.5272 10.4272 18 9.02811 18C7.62747 18 6.39202 16.5224 5.63024 14.2606C3.05209 14.8039 0.998498 14.5859 0.297004 13.5007C-0.400576 12.421 0.404263 10.7351 2.19949 9.02145C0.369815 7.29399 -0.453815 5.58866 0.250028 4.50069C0.954655 3.40995 3.02782 3.19471 5.62398 3.74838C6.38654 1.48177 7.62668 0 9.02889 0C10.4303 0 11.6665 1.47693 12.4283 3.738C15.0002 3.19817 17.0507 3.41687 17.7514 4.50069C18.4529 5.58936 17.6285 7.29606 15.8003 9.02561ZM0.975793 4.87581C0.437146 5.70909 1.18014 7.07528 2.75302 8.51969C3.39423 7.9667 4.13252 7.41787 4.95458 6.89049C5.0548 6.0143 5.20747 5.1831 5.4165 4.42664C3.21885 3.92764 1.51679 4.03906 0.975793 4.87581ZM4.86611 7.86566C4.30241 8.24492 3.78804 8.62973 3.3269 9.01384C3.7943 9.40003 4.2985 9.7876 4.86925 10.1696C4.84576 9.78553 4.82932 9.39726 4.82932 9C4.82932 8.6152 4.84341 8.23731 4.86611 7.86566ZM4.9538 11.1413C4.13095 10.616 3.39501 10.0686 2.75145 9.51769C1.20675 10.9489 0.489602 12.2992 1.02355 13.1256C1.56142 13.9568 3.24547 14.0724 5.42355 13.5837C5.21451 12.8314 5.05323 12.0134 4.9538 11.1413ZM12.2005 11.6542C11.8513 11.857 11.4943 12.0563 11.1224 12.248C10.745 12.4425 10.3677 12.621 9.99188 12.7913C10.6362 13.0335 11.2665 13.2446 11.8646 13.4066C12.0048 12.864 12.1136 12.2722 12.2005 11.6542ZM9.02732 17.2498C10.0991 17.2498 11.0504 16.0144 11.6658 14.0959C10.8163 13.88 9.91907 13.5796 9.00462 13.2142C8.10661 13.5747 7.22818 13.8647 6.39202 14.0814C7.00583 16.0047 7.95551 17.2498 9.02732 17.2498ZM6.19864 13.3893C6.77957 13.2294 7.38711 13.0308 8.01188 12.7954C7.63451 12.6245 7.2548 12.4439 6.87586 12.2487C6.52433 12.0667 6.18611 11.8798 5.85494 11.6881C5.94028 12.2951 6.06163 12.855 6.19864 13.3893ZM5.85651 6.33959C6.20177 6.13957 6.55565 5.94302 6.92284 5.75269C7.28533 5.56513 7.64782 5.3928 8.00953 5.22808C7.38241 4.99139 6.7686 4.78237 6.18455 4.62112C6.04832 5.15403 5.94263 5.7347 5.85651 6.33959ZM9.02732 0.750231C7.95238 0.750231 6.99643 1.99739 6.38184 3.92971C7.21722 4.14703 8.09722 4.44532 8.99366 4.8066C9.91124 4.43494 10.8085 4.13803 11.6626 3.91795C11.0488 1.996 10.0999 0.750231 9.02732 0.750231ZM11.8576 4.60866C11.2563 4.77407 10.6284 4.97893 9.98014 5.22531C10.3442 5.39073 10.7098 5.56444 11.0747 5.75338C11.4677 5.95617 11.8435 6.16726 12.2107 6.38181C12.1245 5.74854 12.0001 5.16372 11.8576 4.60866ZM12.3187 7.34174C11.7942 7.01922 11.2399 6.70432 10.6542 6.40326C10.0937 6.11396 9.53779 5.86135 8.98818 5.62535C8.44562 5.85927 7.89522 6.11881 7.34327 6.40326C6.78505 6.69048 6.25188 6.99085 5.75003 7.29675C5.70149 7.84835 5.66861 8.4131 5.66861 9.00069C5.66861 9.59451 5.69601 10.1724 5.74455 10.7302C6.23544 11.0285 6.75373 11.3199 7.29551 11.5995C7.87174 11.8964 8.44327 12.156 9.00853 12.3968C9.56675 12.1573 10.1336 11.8923 10.7012 11.5995C11.2641 11.3095 11.7989 11.0078 12.3054 10.6984C12.3532 10.1489 12.3868 9.5862 12.3868 9.00069C12.3868 8.43179 12.3633 7.87742 12.3187 7.34174ZM16.9747 13.1256C17.5087 12.3006 16.7853 10.9524 15.2437 9.52461C14.6166 10.0603 13.8986 10.5918 13.1016 11.1033C13.0014 11.9905 12.8464 12.8328 12.6334 13.5976C14.7833 14.0717 16.4423 13.9492 16.9747 13.1256ZM13.1901 10.1281C13.7295 9.76407 14.2243 9.39449 14.6706 9.02699C14.2228 8.65326 13.7397 8.27745 13.1932 7.90718C13.2128 8.26638 13.2269 8.62973 13.2269 9C13.2261 9.38342 13.212 9.75854 13.1901 10.1281ZM17.0217 4.87581C16.4846 4.04599 14.806 3.92833 12.6334 4.41487C12.8472 5.18863 13.0124 6.03368 13.111 6.93479C13.9088 7.4504 14.6221 7.98677 15.2468 8.52591C16.8228 7.07874 17.5619 5.71047 17.0217 4.87581ZM9.15572 10.4271C8.23423 10.4271 7.48732 9.76061 7.48732 8.93771C7.48732 8.11481 8.23423 7.44832 9.15572 7.44832C10.0764 7.44832 10.8233 8.1155 10.8233 8.93771C10.8233 9.7613 10.0764 10.4271 9.15572 10.4271Z" fill="url(#paint0_linear_17_203)"/>
<defs>
<linearGradient id="paint0_linear_17_203" x1="9" y1="0" x2="9" y2="18" gradientUnits="userSpaceOnUse">
<stop stop-color="#6ED25E"/>
<stop offset="1" stop-color="#00FFF0" stop-opacity="0.96"/>
</linearGradient>
</defs>
</svg>
